<svg height="459pt" viewBox="-54 0 459 459.27616" width="459pt" xmlns="http://www.w3.org/2000/svg"><path d="m84.257812 53.554688 160.648438 290.695312 45.898438-22.949219-198.898438-313.648437zm0 0" fill="#acbfcc"/><path d="m23.058594 420.75c-4.226563 0-7.652344-3.421875-7.652344-7.648438 0-4.226562 3.425781-7.652343 7.652344-7.652343 12.035156.640625 22.3125-8.601563 22.949218-20.640625.042969-.785156.042969-1.570313 0-2.351563.042969-4.199219 3.453126-7.578125 7.648438-7.585937h.046875c4.203125.015625 7.601563 3.425781 7.605469 7.628906.769531 20.351562-15.101563 37.476562-35.457032 38.25-.929687.035156-1.863281.035156-2.792968 0zm0 0" fill="#7d8d9c"/><path d="m313.753906 53.554688-160.648437 290.695312-45.898438-22.949219 198.898438-313.648437zm0 0" fill="#c7d3dd"/><path d="m114.855469 298.351562c-33.796875 0-61.199219 34.25-61.199219 76.5 0 42.246094 27.402344 76.5 61.199219 76.5 33.800781 0 61.199219-34.253906 61.199219-76.5 0-42.25-27.398438-76.5-61.199219-76.5zm0 122.398438c-16.300781 0-30.597657-21.445312-30.597657-45.898438 0-24.449218 14.296876-45.898437 30.597657-45.898437s30.601562 21.449219 30.601562 45.898437c0 24.453126-14.300781 45.898438-30.601562 45.898438zm0 0" fill="#acbfcc"/><path d="m283.15625 298.351562c-33.800781 0-61.199219 34.25-61.199219 76.5 0 42.246094 27.398438 76.5 61.199219 76.5s61.199219-34.253906 61.199219-76.5c0-42.25-27.398438-76.5-61.199219-76.5zm0 122.398438c-16.300781 0-30.601562-21.445312-30.601562-45.898438 0-24.449218 14.300781-45.898437 30.601562-45.898437s30.597656 21.449219 30.597656 45.898437c0 24.453126-14.296875 45.898438-30.597656 45.898438zm0 0" fill="#c7d3dd"/><path d="m199.007812 229.503906c-4.222656 0-7.648437-3.421875-7.652343-7.644531 0 0 0-.003906 0-.007813v-7.648437c0-4.226563 3.425781-7.652344 7.652343-7.652344 4.222657 0 7.648438 3.425781 7.648438 7.652344v7.648437c.003906 4.222657-3.417969 7.648438-7.640625 7.652344-.003906 0-.007813 0-.007813 0zm0 0" fill="#7d8d9c"/><path d="m38.355469 76.503906c-4.222657 0-7.644531-3.417968-7.648438-7.640625 0-.003906 0-.007812 0-.007812-.015625-12.671875-10.28125-22.9375-22.949219-22.953125-4.226562 0-7.652343-3.421875-7.652343-7.648438 0-4.226562 3.425781-7.652344 7.652343-7.652344 12.667969-.011718 22.933594-10.28125 22.949219-22.949218 0-4.222656 3.425781-7.64843775 7.648438-7.64843775 4.226562 0 7.652343 3.42187475 7.652343 7.64843775.011719 12.667968 10.28125 22.9375 22.949219 22.949218 4.226563 0 7.652344 3.425782 7.652344 7.652344 0 4.226563-3.425781 7.648438-7.652344 7.648438-12.667969.015625-22.9375 10.28125-22.949219 22.953125 0 4.222656-3.417968 7.644531-7.644531 7.648437 0 0-.003906 0-.007812 0zm-7.671875-38.25c2.910156 2.183594 5.492187 4.765625 7.675781 7.671875 2.179687-2.90625 4.761719-5.488281 7.671875-7.671875-2.910156-2.183594-5.492188-4.765625-7.671875-7.671875-2.183594 2.90625-4.769531 5.488281-7.675781 7.671875zm0 0" fill="#fdbd40"/><path d="m114.855469 321.300781c-20.730469 0-38.25 24.527344-38.25 53.550781 0 29.023438 17.519531 53.550782 38.25 53.550782 20.734375 0 38.25-24.527344 38.25-53.550782 0-29.023437-17.515625-53.550781-38.25-53.550781zm0 91.800781c-10.613281 0-22.949219-16.710937-22.949219-38.25 0-21.539062 12.335938-38.25 22.949219-38.25 10.617187 0 22.953125 16.710938 22.953125 38.25-.003906 21.539063-12.335938 38.25-22.953125 38.25zm0 0"/><path d="m283.15625 290.703125c-.875 0-1.726562.121094-2.59375.160156l-47.667969-75.175781 87.554688-158.4375c.835937-1.507812 1.136719-3.253906.851562-4.953125l-7.652343-45.898437c-.6875-4.167969-4.625-6.984376-8.792969-6.292969-2.152344.355469-4.046875 1.613281-5.210938 3.453125l-100.640625 158.699218-100.636718-158.699218c-2.257813-3.5664065-6.980469-4.628906-10.550782-2.371094-1.839844 1.164062-3.097656 3.0625-3.453125 5.210938l-7.652343 45.898437c-.28125 1.703125.015624 3.449219.851562 4.953125l87.558594 158.4375-47.667969 75.175781c-.867187-.039062-1.71875-.160156-2.59375-.160156-37.96875 0-68.851563 37.746094-68.851563 84.148437 0 2.144532.132813 4.25.265626 6.355469-.125.410157-.214844.824219-.265626 1.25.660157 12.035157-8.558593 22.328125-20.597656 22.992188-.78125.042969-1.566406.042969-2.351562 0-4.226563 0-7.652344 3.425781-7.652344 7.652343 0 4.226563 3.425781 7.648438 7.652344 7.648438 10.941406.566406 21.542968-3.890625 28.792968-12.105469 10.671876 29.609375 34.875 50.355469 63.003907 50.355469 37.96875 0 68.851562-37.75 68.851562-84.148438.105469-16.757812-4.136719-33.257812-12.308593-47.890624l27.609374-49.960938 27.605469 49.960938c-8.171875 14.632812-12.414062 31.132812-12.308593 47.890624 0 46.398438 30.886718 84.148438 68.851562 84.148438s68.847656-37.75 68.847656-84.148438c0-46.402343-30.882812-84.148437-68.847656-84.148437zm-190.914062-238.515625 3.921874-23.542969 93.78125 147.898438-15.484374 24.421875zm22.613281 391.511719c-29.523438 0-53.546875-30.882813-53.546875-68.847657 0-37.96875 24.023437-68.851562 53.546875-68.851562 29.527343 0 53.550781 30.882812 53.550781 68.851562 0 37.964844-24.023438 68.847657-53.550781 68.847657zm18.75-149.742188 168.242187-265.3125 3.921875 23.542969-144.230469 260.992188c-7.5-8.707032-17.121093-15.328126-27.933593-19.222657zm74.140625-32.765625 16.710937-30.238281 39.949219 63.003906c-10.8125 3.894531-20.433594 10.515625-27.933594 19.222657zm75.410156 182.507813c-29.523438 0-53.550781-30.882813-53.550781-68.847657 0-37.96875 24.027343-68.851562 53.550781-68.851562s53.550781 30.882812 53.550781 68.851562c0 37.964844-24.027343 68.847657-53.550781 68.847657zm0 0"/><path d="m283.15625 321.300781c-20.730469 0-38.25 24.527344-38.25 53.550781 0 29.023438 17.519531 53.550782 38.25 53.550782s38.25-24.527344 38.25-53.550782c0-29.023437-17.519531-53.550781-38.25-53.550781zm0 91.800781c-10.617188 0-22.949219-16.710937-22.949219-38.25 0-21.539062 12.332031-38.25 22.949219-38.25s22.949219 16.710938 22.949219 38.25c0 21.539063-12.335938 38.25-22.949219 38.25zm0 0"/><path d="m199.007812 206.550781c-4.222656 0-7.648437 3.421875-7.652343 7.644531v.007813 7.648437c0 4.226563 3.425781 7.652344 7.652343 7.652344 4.222657 0 7.648438-3.425781 7.648438-7.652344v-7.648437c.003906-4.222656-3.417969-7.648437-7.640625-7.652344-.003906 0-.007813 0-.007813 0zm0 0"/><path d="m30.707031 68.855469c0 4.222656 3.425781 7.648437 7.652344 7.648437 4.222656 0 7.648437-3.425781 7.648437-7.648437.015626-12.671875 10.28125-22.9375 22.949219-22.953125 4.226563 0 7.652344-3.421875 7.652344-7.648438 0-4.226562-3.425781-7.652344-7.652344-7.652344-12.667969-.011718-22.933593-10.28125-22.949219-22.949218 0-4.222656-3.425781-7.64843775-7.648437-7.64843775-4.226563 0-7.652344 3.42187475-7.652344 7.64843775-.011719 12.667968-10.28125 22.9375-22.949219 22.949218-4.226562 0-7.652343 3.425782-7.652343 7.652344 0 4.226563 3.425781 7.648438 7.652343 7.648438 12.667969.015625 22.9375 10.28125 22.949219 22.953125zm7.648438-38.273438c2.183593 2.90625 4.765625 5.488281 7.671875 7.671875-2.90625 2.183594-5.488282 4.765625-7.671875 7.671875-2.179688-2.90625-4.765625-5.488281-7.671875-7.671875 2.90625-2.183594 5.492187-4.765625 7.671875-7.671875zm0 0"/></svg>